<?xml version="1.0" encoding="utf-8"?>
<!-- Generator: Adobe Illustrator 23.0.6, SVG Export Plug-In . SVG Version: 6.00 Build 0)  -->
<svg version="1.1" id="Layer_1" xmlns="http://www.w3.org/2000/svg" xmlns:xlink="http://www.w3.org/1999/xlink" x="0px" y="0px"
	 viewBox="0 0 600 600" style="enable-background:new 0 0 600 600;" xml:space="preserve">
<style type="text/css">
	.st0{fill:#FFFFFF;}
</style>
<g>
	<path class="st0" d="M303.8,481.7c12.9-5.7,23.8-15.3,31.2-27.4c-8.5-1.9-17.2-2.6-26-2.1c-22.4,1.6-39.9,12.3-52.1,31.8
		c-0.2,7.7,0.6,49.5,42.2,61.1c4.2-14.1,3.1-29.1-3.2-42.4c-1.7-3.9-1.9-8.3-0.4-12.1C296.9,486.6,299.9,483.4,303.8,481.7
		L303.8,481.7z"/>
	<path class="st0" d="M97.1,272.4c2.5,0.7,4.2,3.3,3.7,5.8c0,0.1,0,0.2-0.1,0.2c-2.5,12.5-3.8,25.3-3.9,38.1
		c-0.1,45.3,19.7,90.8,54.3,124.5c27.7,27,58.6,38.2,95.8,49.1c-0.1-2.1-0.2-3.9-0.2-5.2c-24.7-18-44.4-43.2-54.5-69.5l0,0
		c-10-26-10.3-54.7-0.7-80.9c2.3-6.7,5.5-13.1,9.3-19.2c0.9-1.4,2.4-2.3,4.1-2.3c1.6-0.1,3.3,0.7,4.3,2c6.9,9.4,20.7,12.2,31,12.8
		l0,0c3.4,0.2,6.8,0.2,10.2,0.1c-5.1-5.8-9.6-13.8-13.6-23.8l0,0c-2.9-7.3-5.1-14.9-6.7-22.6c-0.3-1.6,0.2-3.3,1.3-4.4
		c6-7.1,12.8-15.8,17.8-26c9.8-19.7,9.9-39.6,0.3-54.5c-9.6-15-27.9-23.2-50.1-22.6c-7.6,0.2-15.1,1.6-22.3,4.2
		c-23,7.9-41.9,23.6-56,46.8c-0.5,0.9-1.2,1.7-2.1,2.1c-27.6,14-46.3,28.6-65.2,47.5C66.9,271.6,84.5,268.9,97.1,272.4L97.1,272.4z
		 M232.9,211.7c3.4,0,6.4,2,7.7,5.2c1.3,3.2,0.6,6.7-1.8,9.2c-2.3,2.4-6,3.2-9.2,1.8c-3.2-1.3-5.2-4.4-5.2-7.7
		C224.5,215.4,228.3,211.7,232.9,211.7L232.9,211.7z M147.2,239.8c1.4-2.3,4.5-3.2,6.8-1.8c2.3,1.3,3.3,4.4,1.9,6.8
		c-46.6,81.1-7.7,148.4,33.1,190.5c1.9,2,1.8,5.2-0.1,7.1s-5.2,1.8-7.1-0.1c-26.1-27-43.5-55.4-51.8-84.7
		C118.9,318.4,124.8,278.8,147.2,239.8L147.2,239.8z"/>
	<path class="st0" d="M299.5,55c-4.2,14.1-3.1,29.1,3.2,42.4c1.7,3.9,1.9,8.3,0.4,12.1c-1.5,4-4.5,7.1-8.3,8.9
		c-12.9,5.7-23.8,15.3-31.2,27.4c8.5,1.9,17.2,2.6,26,2.1c22.4-1.6,39.9-12.3,52.1-31.8C341.9,108.3,341.1,66.6,299.5,55L299.5,55z"
		/>
	<path class="st0" d="M501.3,327.6c-2.5-0.7-4.2-3.3-3.7-5.9c0-0.1,0-0.1,0-0.2c2.5-12.5,3.8-25.3,3.9-38.1
		c0.1-45.3-19.7-90.8-54.3-124.5c-27.7-27-58.6-38.2-95.8-49.1c0.1,2.1,0.2,3.9,0.2,5.2c24.7,18,44.4,43.2,54.5,69.5
		c10,26,10.3,54.7,0.7,80.9c-2.3,6.7-5.5,13.1-9.3,19.2c-0.7,1.1-1.8,1.9-3.2,2.2c-1.3,0.3-2.6,0.1-3.9-0.6c-0.5-0.3-1-0.8-1.3-1.3
		c-6.9-9.4-20.7-12.2-31-12.8l0,0c-3.4-0.2-6.8-0.2-10.2-0.1c5.1,5.8,9.6,13.8,13.6,23.8c2.9,7.3,5.1,14.9,6.7,22.6
		c0.3,1.6-0.2,3.3-1.3,4.4c-6,7.1-12.8,15.8-17.8,26c-9.8,19.7-9.9,39.6-0.3,54.5c9.6,15,27.9,23.2,50.1,22.6
		c7.6-0.2,15.1-1.6,22.3-4.2c23-7.9,41.9-23.6,56-46.8c0.5-0.9,1.2-1.7,2.1-2.1c27.6-14,46.3-28.6,65.2-47.5
		C531.7,328.4,514.1,331.1,501.3,327.6L501.3,327.6z M364.9,377c-3.4,0-6.4-2-7.7-5.2c-1.3-3.2-0.6-6.7,1.8-9.2
		c2.4-2.3,6-3.2,9.2-1.8c3.2,1.3,5.2,4.4,5.2,7.7C373.3,373.3,369.6,377,364.9,377L364.9,377z M451.4,360.2
		c-1.4,2.4-4.5,3.3-6.8,1.8c-2.4-1.4-3.3-4.5-1.8-6.8c20-34.6,25.9-69.8,17.7-104.3c-6.3-26.8-21-53.2-43.6-78.6l0,0
		c-1.8-2-1.6-5.2,0.4-7.1c2-1.8,5.2-1.6,7.1,0.4C462.8,208.8,498.9,277.6,451.4,360.2L451.4,360.2z"/>
	<path class="st0" d="M73.7,404c-6.3-17.6-9.5-36.2-9.5-54.8c0-1.3-0.5-2.6-1.4-3.6s-2.2-1.4-3.6-1.4l0,0c-2.8,0-5,2.2-5,5
		c0,19.9,3.4,39.5,10.1,58.2c0.9,2.6,3.8,4,6.4,3.1C73.2,409.5,74.6,406.7,73.7,404L73.7,404z"/>
	<path class="st0" d="M118.5,473.8c-10-9.8-19-20.7-26.5-32.5c-1.5-2.3-4.6-3-6.9-1.5c-2.3,1.5-3.1,4.6-1.5,6.9
		c8,12.4,17.4,23.9,27.9,34.2c15.6,15.3,33.1,26.7,55,36.1c1.2,0.5,2.6,0.5,3.9,0c1.2-0.5,2.2-1.4,2.8-2.6s0.5-2.6,0-3.9
		c-0.5-1.2-1.4-2.2-2.6-2.8C149.7,499,133.2,488.2,118.5,473.8L118.5,473.8z"/>
	<path class="st0" d="M198.5,518.1c-1.2-0.4-2.6-0.3-3.9,0.3c-1.2,0.6-2,1.6-2.4,3c-0.8,2.6,0.6,5.5,3.3,6.3
		c7.4,2.3,14.8,4.5,21,6.3l0,0c2.6,0.8,5.5-0.8,6.2-3.5c0.7-2.6-0.8-5.5-3.5-6.2C213.1,522.6,205.9,520.5,198.5,518.1L198.5,518.1z"
		/>
	<path class="st0" d="M36.9,420.2c-0.5-2.8-3.2-4.5-5.9-4c-2.8,0.5-4.5,3.2-4,5.9c3.9,19.5,11,38.1,21.2,55.1
		c1.4,2.3,4.5,3.2,6.9,1.7c2.3-1.4,3.2-4.5,1.7-6.9C47.3,456.1,40.6,438.6,36.9,420.2L36.9,420.2z"/>
	<path class="st0" d="M111.7,541.1c2.2,0,4.2-1.4,4.8-3.6c0.6-2.1-0.2-4.4-2-5.6c-11.7-7.6-22.6-16.6-32.3-26.7
		c-1.9-2-5.1-2-7.1-0.1c-2,1.9-2,5.1-0.1,7.1c10.3,10.6,21.7,20.1,34,28.1C109.8,540.8,110.7,541.1,111.7,541.1L111.7,541.1z"/>
	<path class="st0" d="M529.4,187c-1.2,0.4-2.2,1.3-2.9,2.5c-0.6,1.2-0.6,2.5-0.2,3.9c6.3,17.6,9.5,36.2,9.5,54.8
		c0,1.3,0.5,2.6,1.4,3.6c0.9,0.9,2.2,1.4,3.6,1.5l0,0c2.8,0,5-2.2,5-5c0-19.9-3.4-39.5-10.1-58.2C534.9,187.5,532,186.1,529.4,187
		L529.4,187z"/>
	<path class="st0" d="M429.6,89.7c20.7,8.9,37.2,19.7,52,34c10.1,9.8,19,20.7,26.5,32.5c1.5,2.3,4.6,3.1,6.9,1.5
		c2.3-1.5,3-4.6,1.5-6.9c-8-12.4-17.4-23.9-27.9-34.2c-15.6-15.3-33.1-26.7-55-36.1c-1.2-0.5-2.6-0.5-3.9-0.1
		c-1.2,0.5-2.2,1.4-2.8,2.6c-0.5,1.2-0.5,2.6,0,3.9C427.4,88.2,428.4,89.2,429.6,89.7L429.6,89.7z"/>
	<path class="st0" d="M383.4,63.5c-2.6-0.7-5.4,0.8-6.2,3.5c-0.8,2.6,0.7,5.4,3.4,6.2c6.2,1.8,13.4,4,20.8,6.2l0,0
		c2.6,0.8,5.5-0.6,6.3-3.3c0.8-2.6-0.6-5.5-3.3-6.3C397.1,67.5,389.8,65.3,383.4,63.5L383.4,63.5z"/>
	<path class="st0" d="M551.8,120.3c-1.4-2.3-4.5-3.2-6.9-1.7c-2.3,1.4-3.2,4.5-1.7,6.9c9.6,16,16.3,33.6,20,52
		c0.5,2.3,2.5,4.1,4.9,4.1c0.3,0,0.6,0,1-0.1c2.8-0.5,4.5-3.2,4-5.9C569.1,155.9,562,137.3,551.8,120.3L551.8,120.3z"/>
	<path class="st0" d="M484.1,58.7c-1.5,2.3-0.8,5.4,1.4,6.9c11.7,7.6,22.6,16.6,32.3,26.7c1.9,2,5.1,2,7.1,0.1
		c0.9-0.9,1.5-2.2,1.5-3.6s-0.5-2.6-1.4-3.6c-10.3-10.6-21.7-20.1-34-28.1C488.7,55.8,485.6,56.4,484.1,58.7L484.1,58.7z"/>
</g>
</svg>
