<svg width="50" height="50" viewBox="0 0 50 50" fill="none" xmlns="http://www.w3.org/2000/svg">
	<g id="Icon_SocialMedia_Web">
	<path id="Union" fill-rule="evenodd" clip-rule="evenodd" d="M11.7186 27.1153H19.6157L19.6173 27.1169V26.1698C19.6173 25.0268 19.6168 23.884 19.6162 22.7412C19.6151 20.4559 19.614 18.1709 19.6173 15.8851C19.619 14.0952 20.4611 12.7499 21.9008 11.7563C23.8047 10.4409 25.8901 10.4193 27.9355 11.2222C29.7113 11.9189 30.9446 13.221 31.126 15.2547C31.1693 15.7457 31.3806 15.9498 31.9099 15.9431C33.3889 15.9255 34.8686 15.9269 36.3481 15.9284C37.0879 15.9291 37.8276 15.9299 38.5671 15.9282C38.6907 15.9271 38.8136 15.9078 38.948 15.8867C39.0126 15.8766 39.0799 15.866 39.1513 15.8569C39.0298 13.2575 38.3025 10.9617 36.8262 8.82185C33.7123 4.30655 27.606 2.42213 22.7179 3.35936C18.4956 4.16887 15.1853 6.4431 13.1415 10.2534C12.4192 11.6004 11.8051 13.1696 11.7319 14.6659C11.5954 17.4827 11.6269 20.3074 11.6584 23.1323C11.6707 24.2333 11.6829 25.3345 11.6853 26.4352C11.6853 26.5821 11.6947 26.7291 11.7049 26.8884C11.7096 26.961 11.7144 27.0363 11.7186 27.1153ZM19.5002 34.0789H11.6325H11.6309C11.6534 34.3046 11.6687 34.5231 11.6835 34.7356C11.7144 35.1774 11.7434 35.5934 11.8328 35.9959C12.4388 38.7402 13.6839 41.1312 15.7667 43.0747C18.0879 45.241 20.8562 46.5108 23.9672 46.808C26.747 47.0739 29.4507 46.5356 31.9756 45.2097C36.5783 42.7906 38.9674 38.9945 39.1065 33.8411C39.1682 31.5266 39.1526 29.2104 39.137 26.8944C39.1301 25.8546 39.1231 24.8149 39.1231 23.7754V22.8821H31.2587C31.2587 23.0506 31.2598 23.2124 31.261 23.3699C31.2632 23.6724 31.2652 23.9587 31.2587 24.2443C31.2368 25.2729 31.2331 26.3032 31.2295 27.3335C31.221 29.7319 31.2125 32.1301 30.9739 34.5049C30.6179 38.0385 27.3977 39.8746 24.0086 39.1283C21.3727 38.5487 19.8827 36.7803 19.5002 34.0789Z" fill="white"/>
	</g>
</svg>
	