<?xml version="1.0" encoding="utf-8"?>
<!-- Generator: Adobe Illustrator 23.0.1, SVG Export Plug-In . SVG Version: 6.00 Build 0)  -->
<svg version="1.1" xmlns="http://www.w3.org/2000/svg" xmlns:xlink="http://www.w3.org/1999/xlink" x="0px" y="0px"
	 viewBox="0 0 100 100" style="enable-background:new 0 0 100 100;" xml:space="preserve">
<style type="text/css">
	.st0{fill:#FFFFFF;}
</style>
<g id="Layer_2">
</g>
<g id="Layer_1">
	<path class="st0" d="M96.3,38.9h1.2V19.5h-95v19.4h1.2c6.1,0,11,4.9,11,11s-4.9,11-11,11H2.5v19.4h95V60.9h-1.2
		c-6.1,0-11-4.9-11-11C85.3,43.9,90.2,38.9,96.3,38.9z M47.7,47.1h4.6c5.2,0,9.5,4.2,9.5,9.5c0,5-4,9.1-8.9,9.4v5.4h-5.7v-5.5
		c-5-0.3-8.9-4.4-8.9-9.4H44c0,2.1,1.7,3.7,3.7,3.7h4.6c2.1,0,3.7-1.7,3.7-3.7c0-2.1-1.7-3.7-3.7-3.7h-4.6c-5.2,0-9.5-4.2-9.5-9.5
		c0-5,4-9.1,8.9-9.4v-5.4h5.7v5.4c5,0.3,8.9,4.4,8.9,9.4H56c0-2.1-1.7-3.7-3.7-3.7h-4.6c-2.1,0-3.7,1.7-3.7,3.7
		C43.9,45.4,45.6,47.1,47.7,47.1z"/>
</g>
</svg>
