<svg id="Layer_1" data-name="Layer 1" xmlns="http://www.w3.org/2000/svg" viewBox="0 0 90 78.59"><defs><style>.cls-1{fill:#fff;}</style></defs><title>camera</title><circle class="cls-1" cx="45" cy="47.74" r="20.43"/><path class="cls-1" d="M89.38,14H66.88V7a4.29,4.29,0,0,0-4.22-4.3H37.34A4.29,4.29,0,0,0,33.12,7v7H27.5a3.94,3.94,0,0,0-4.22-4.22H17.66A3.94,3.94,0,0,0,13.44,14H10.62A5.84,5.84,0,0,0,5,19.81V71.69a5.56,5.56,0,0,0,5.62,5.54H34.68A28.52,28.52,0,0,0,50,81.3a28.52,28.52,0,0,0,15.32-4.07H89.38A5.55,5.55,0,0,0,95,71.69V19.81A5.84,5.84,0,0,0,89.38,14Zm-29.53-1.4a4.21,4.21,0,0,1-4.23,4.21H44.38a4.21,4.21,0,0,1-4.22-4.21V11.14a4.21,4.21,0,0,1,4.22-4.22H55.62a4.22,4.22,0,0,1,4.23,4.22ZM50,76.49A26.06,26.06,0,1,1,76.05,50.43,26.05,26.05,0,0,1,50,76.49ZM82.34,33.72A5.63,5.63,0,1,1,88,28.09,5.63,5.63,0,0,1,82.34,33.72Z" transform="translate(-5 -2.7)"/></svg>