<?xml version="1.0" encoding="utf-8"?>
<!-- Generator: Adobe Illustrator 23.0.6, SVG Export Plug-In . SVG Version: 6.00 Build 0)  -->
<svg version="1.1" id="Layer_1" xmlns="http://www.w3.org/2000/svg" xmlns:xlink="http://www.w3.org/1999/xlink" x="0px" y="0px"
	 viewBox="0 0 81.5 100" style="enable-background:new 0 0 81.5 100;" xml:space="preserve">
<style type="text/css">
	.st0{fill:#FFFFFF;}
</style>
<path class="st0" d="M15.3,68.6c0,1-0.3,3-0.4,3.6c-0.7,4.6-1.3,9.2-2,13.8c-0.4,2.4-1.9,2.9-3.6,2.6c-0.5-0.1-0.9-0.1-1.3-0.3
	c-1.3-0.4-2-1.3-1.8-2.6c0.5-2.8,1.1-5.6,1.8-8.4c0.2-0.7,2.2-9.2,2.4-10c0.1-0.8-1.6-5.2-1.4-5.1c0.1,0,4.6-0.6,5.9,0
	C15.5,63.3,15.3,67.6,15.3,68.6"/>
<path class="st0" d="M1.5,26.5c-2.1-2.2-2-5.6,0.2-7.7c2.2-2.1,5.8-2,7.9,0.2c2,2.2,1.9,5.7-0.3,7.8C7.1,28.9,3.6,28.8,1.5,26.5"/>
<polygon class="st0" points="27.1,100 19.6,60.8 17.5,61.2 25.5,100 "/>
<path class="st0" d="M10.9,37.9c0,0,1.1-0.3,1.3-0.4c1.4-0.4,3,0,3.8,0.2c1,0.2,6.7-1.8,8.5-2.9c1.8-1.1,5.8-5,5.8-5.7
	s-1.1-3.7-1.9-2.8s-8.3,6.3-9.3,6.4c-1,0.1-7.5-0.1-9.1-0.9c-1.1-0.6-5.3-1.8-6.5-1.4c-1.2,0.4-3.8,1.8-3.4,4s2.1,10.1,2.6,12.1
	s2.2,7.9,3.1,9.3c0.9,1.4,1.5,4,3.7,4.2s5.2-0.2,8-0.9c2.8-0.7,5.5-3.5,6.4-1.7s0.8,4.1,2.1,7.4c1.3,3.3,2.3,7.8,2.7,9.6
	s0.2,1.2,1.3,2c1.1,0.8,4,0.4,4.2-0.6c0.2-1-4.8-19-5.4-20.4c-0.6-1.4-1.3-3.9-4.2-4.1s-6.6,0.7-7.8,0.6s-2.8-1.2-3.3-2.9
	c-0.5-1.7-2.3-6.5-2.8-8.1C9.8,38.4,10.9,37.9,10.9,37.9z"/>
<path class="st0" d="M8.2,16.2c1.1,0.4,4,2.2,4,2.2S13.7,8,13.7,6.7S11.6,2,10.9,2c-0.7,0-1.4,0.7-1.4,2.2S8.3,15.8,8.3,15.8"/>
<path class="st0" d="M3.3,53.7c0.4,0.7,3.2,6.1,3.1,6.8s0,7-1,8c-1,1-1.8-2.3-1.8-2.3s0.8,3.3-0.7,3.6c-1.5,0.3-1.6-7.1-1.6-7.1
	S0,57.4,1,56.2C2,55,3.3,53.7,3.3,53.7z"/>
<g>
	<path class="st0" d="M74.3,0H15.9c-0.2,5.1,2.1,1.3,3.4,3.9c1.4,2.9-0.3,11.4,2.1,13.9c5.8,6,11.8,2.3,16.4,2.5
		c-14.3,1.1-1.2,6.8-6.9,9.7c-3.7,1.9,2,24.4,4,32.7s10.6,9.6,10.6,9.6S36.4,72.8,36,78c-0.3,5.2,0.1,2,2.5,12.6
		c2.2,9.3,2.1,6.4,1.8,9.4h34c4.1,0,7.2-3.9,7.2-8V8C81.5,3.8,78.4,0,74.3,0z"/>
</g>
</svg>
