<svg id="Layer_1" data-name="Layer 1" xmlns="http://www.w3.org/2000/svg" viewBox="0 0 96.04 96.04"><defs><style>.cls-1{fill:#fff;}</style></defs><title>design</title><path class="cls-1" d="M22.41,44.65,3,25.25a3.46,3.46,0,0,1,0-4.91H3L20.81,2.53a3.47,3.47,0,0,1,4.91,0h0l19.4,19.4a.82.82,0,0,1,0,1.17h0l-3.73,3.73a.83.83,0,0,1-1.17,0L38.3,24.92l-3.5,3.51a1.77,1.77,0,0,1-2.5,0,1.43,1.43,0,0,1-.2-.23,1.84,1.84,0,0,1,.26-2.34l3.42-3.42-2.5-2.5-3.49,3.49a1.77,1.77,0,0,1-2.5,0,1.43,1.43,0,0,1-.2-.23,1.84,1.84,0,0,1,.26-2.34l3.42-3.42-2.5-2.5-3.49,3.49a1.77,1.77,0,0,1-2.5,0,1.43,1.43,0,0,1-.2-.23,1.84,1.84,0,0,1,.26-2.34l3.42-3.42-2.5-2.5L10.38,22.79l16.94,17a.82.82,0,0,1,0,1.17h0l-3.73,3.73a.82.82,0,0,1-1.17,0Zm55.17,9.77a.82.82,0,0,0-1.17,0h0l-3.73,3.73a.82.82,0,0,0,0,1.17h0l1.92,1.92-3.42,3.42A1.84,1.84,0,0,0,70.91,67a1.77,1.77,0,0,0,2.47.42,2.11,2.11,0,0,0,.23-.19l3.49-3.49,2.5,2.5-3.42,3.42A1.84,1.84,0,0,0,75.92,72a1.77,1.77,0,0,0,2.47.42,2.11,2.11,0,0,0,.23-.19l3.49-3.49,2.5,2.5-3.42,3.42A1.84,1.84,0,0,0,80.93,77a1.77,1.77,0,0,0,2.47.42,2.11,2.11,0,0,0,.23-.19l3.49-3.49,2.5,2.5L76.74,89.15,59.79,72.21a.82.82,0,0,0-1.17,0h0l-3.73,3.73a.82.82,0,0,0,0,1.17h0l19.4,19.41a3.48,3.48,0,0,0,4.91,0h0L97,78.72a3.46,3.46,0,0,0,0-4.91h0Zm17.8-28.79L36.61,84.4a9.72,9.72,0,0,1-4.17,2.46l-20.5,5.89a4.18,4.18,0,0,1-4.09-1.06h0A4.16,4.16,0,0,1,6.79,87.6l5.89-20.51a9.63,9.63,0,0,1,2.46-4.17L73.91,4.14a8.53,8.53,0,0,1,12,0l9.48,9.39a8.52,8.52,0,0,1,0,12l0,0Zm-15.12-15A2.76,2.76,0,0,0,76.8,11L20,67.92a2.64,2.64,0,0,0-.76,1.66l-2.74,9.55,4,4,10.13-2.91a2.89,2.89,0,0,0,1.12-.69L33.19,78,33.13,78a31,31,0,0,1-6.29-5c-.54-.54-1.05-1.09-1.54-1.63a.87.87,0,0,1,0-1.2L80.68,14.8a2.7,2.7,0,0,0,0-3.81,2.2,2.2,0,0,0-.41-.33Z" transform="translate(-1.98 -1.51)"/></svg>