<?xml version="1.0" encoding="utf-8"?>
<!-- Generator: Adobe Illustrator 23.0.6, SVG Export Plug-In . SVG Version: 6.00 Build 0)  -->
<svg version="1.1" id="Layer_1" xmlns="http://www.w3.org/2000/svg" xmlns:xlink="http://www.w3.org/1999/xlink" x="0px" y="0px"
	 viewBox="0 0 128 128" style="enable-background:new 0 0 128 128;" xml:space="preserve">
<style type="text/css">
	.st0{fill-rule:evenodd;clip-rule:evenodd;fill:#FFFFFF;}
	.st1{fill:#FFFFFF;}
</style>
<g>
	<path class="st0" d="M64,5C30.6,5,3.6,32,3.6,65.4c0,26.7,17.3,49.3,41.3,57.3c3,0.6,4.1-1.3,4.1-2.9c0-1.4-0.1-6.2-0.1-11.2
		c-16.8,3.7-20.3-7.1-20.3-7.1c-2.7-7-6.7-8.8-6.7-8.8c-5.5-3.7,0.4-3.7,0.4-3.7c6.1,0.4,9.3,6.2,9.3,6.2c5.4,9.2,14.1,6.6,17.6,5
		c0.5-3.9,2.1-6.6,3.8-8.1c-13.4-1.5-27.5-6.7-27.5-29.8c0-6.6,2.4-12,6.2-16.2c-0.6-1.5-2.7-7.7,0.6-16c0,0,5.1-1.6,16.6,6.2
		c4.8-1.3,10-2,15.1-2c5.1,0,10.3,0.7,15.1,2C90.6,28.4,95.7,30,95.7,30c3.3,8.3,1.2,14.5,0.6,16c3.9,4.2,6.2,9.6,6.2,16.2
		c0,23.2-14.1,28.3-27.6,29.8c2.2,1.9,4.1,5.5,4.1,11.2c0,8.1-0.1,14.6-0.1,16.6c0,1.6,1.1,3.5,4.1,2.9c24-8,41.3-30.6,41.3-57.3
		C124.3,32,97.3,5,64,5z"/>
	<path class="st1" d="M26.4,91.7c-0.1,0.3-0.6,0.4-1,0.2c-0.4-0.2-0.7-0.6-0.5-0.9c0.1-0.3,0.6-0.4,1-0.2
		C26.3,91,26.6,91.4,26.4,91.7L26.4,91.7z M25.7,91.1"/>
	<path class="st1" d="M28.9,94.4c-0.3,0.3-0.9,0.1-1.2-0.3c-0.4-0.4-0.5-1-0.2-1.3c0.3-0.3,0.8-0.1,1.2,0.3
		C29.1,93.6,29.2,94.1,28.9,94.4L28.9,94.4z M28.3,93.8"/>
	<path class="st1" d="M31.3,97.9c-0.4,0.3-1,0-1.3-0.5c-0.4-0.5-0.4-1.2,0-1.4c0.4-0.3,1,0,1.3,0.5C31.6,97,31.6,97.6,31.3,97.9
		L31.3,97.9z M31.3,97.9"/>
	<path class="st1" d="M34.5,101.2c-0.3,0.4-1,0.3-1.6-0.2c-0.5-0.5-0.7-1.2-0.3-1.5c0.3-0.4,1-0.3,1.6,0.2
		C34.7,100.2,34.9,100.9,34.5,101.2L34.5,101.2z M34.5,101.2"/>
	<path class="st1" d="M39,103.2c-0.1,0.5-0.8,0.7-1.5,0.5c-0.7-0.2-1.1-0.8-1-1.2c0.1-0.5,0.8-0.7,1.5-0.5
		C38.7,102.2,39.2,102.7,39,103.2L39,103.2z M39,103.2"/>
	<path class="st1" d="M44,103.5c0,0.5-0.6,0.9-1.3,0.9c-0.7,0-1.3-0.4-1.3-0.9c0-0.5,0.6-0.9,1.3-0.9C43.4,102.7,44,103.1,44,103.5
		L44,103.5z M44,103.5"/>
	<path class="st1" d="M48.6,102.8c0.1,0.5-0.4,1-1.1,1.1c-0.7,0.1-1.3-0.2-1.4-0.7c-0.1-0.5,0.4-1,1.1-1.1
		C47.8,102,48.5,102.3,48.6,102.8L48.6,102.8z M48.6,102.8"/>
</g>
</svg>
