<?xml version="1.0" encoding="utf-8"?>
<!-- Generator: Adobe Illustrator 23.0.6, SVG Export Plug-In . SVG Version: 6.00 Build 0)  -->
<svg version="1.1" id="Layer_1" xmlns="http://www.w3.org/2000/svg" xmlns:xlink="http://www.w3.org/1999/xlink" x="0px" y="0px"
	 viewBox="0 0 80 82.9" style="enable-background:new 0 0 80 82.9;" xml:space="preserve">
<style type="text/css">
	.st0{fill:#FFFFFF;}
</style>
<path class="st0" d="M80,64.8c-0.6-0.3-1-0.7-1.2-1c0.5-2,0.7-4.2,0.3-6.3c-1.2-7.5-7.6-13-15.2-13c-0.8,0-1.6,0.1-2.4,0.2
	c-1,0.2-2,0.4-3,0.8l-5.4-10.8l7.1-1.3l-0.5-3l-2.4,0.4c-2.1-1.1-5.8-2.5-7.4-3.2c-1.6-0.8-0.8-0.9-4.5-3c1.2-2.6,3.4-4.4,5.5-6.3
	c0.6-1.5-0.2-4.1,1.5-4.6c0.4-0.1,1.5-0.7,2-0.8c0.4,0.4,0.7,0.8,1.7,1c0.6-0.1,1.3-0.4,3.9-2.3c0.5-2.2,0.6-1.9,0.8-2.9
	c1.4,0.3,2,0.6,3.2,0.7c0.2-0.1,0.4-0.3,0.5-0.5C63.2,3.4,60.3-0.4,53.7,0c-0.9,0.9-1.9,2.1-1.8,3.6c0,0.5,0.5,0.7,0.5,1.2
	c0.1,0.6-0.4,2.3-0.8,2.8c-0.4,0.5-1.7,1-2.6,0.8c-0.6-0.1-0.9-1.1-5.2-0.4c-5.8,1-8.2,7.9-15.2,13.4c-1.4,1.6-3.1,4.3-2.5,7.5
	c0.4,2.2,2.1,3.6,2.7,6c0.6,2.1,3.4,8.1,3.3,9.2c0,0.3-0.3,0.7-0.7,1.2L27.9,47l-5.3-7.7c1.3-0.2,2.9-0.4,4.8-0.6l0,0l0,0
	c0,0,0.6-0.8,0.3-1.4c-0.2-0.3-0.5-0.5-1.1-0.5c-0.7,0-1.9,0-3.3,0c-1,0-2.1,0.1-3,0.1c-1.1,0-1.9,0-2.3-0.1c-0.2,0-0.4-0.1-0.7-0.2
	c-0.5-0.2-1.2-0.4-1.7-0.4s-0.9,0.2-1.1,0.6c-0.6,1.2,0.6,3.5,1.5,4.4c0.1,0,0.1,0.1,0.2,0.1l0,0c0.2,0,0.5-0.1,0.9-0.3
	c0.5-0.2,1.1-0.4,2-0.7l6.2,9.2l-3,4.5c-2.1-1-4.5-2-9.3-1.4C4.6,53.2-1.1,61.4,0.2,69.8c1.2,7.5,7.6,13,15.2,13
	c0.8,0,46.2,0.2,64.6,0V64.8z M62.1,48.3c0.6-0.1,1.2-0.1,1.8-0.1c5.8,0,10.6,4.1,11.5,9.8c0.2,1.3,0.2,2.5,0,3.8
	c-0.3,0-0.6,0.1-1,0.1c0.1,0.4,0.3,0.8,0.6,1.3c-0.3,1-0.7,1.9-1.2,2.7c-1-0.3-1.5-0.9-1.8-1.5c-0.5,1.3-1.1,2.7-1.1,2.7l-3.8,2.6
	l-7.4,1c-3.8-1.4-6.7-4.8-7.3-9.1c-0.7-4.5,1.3-8.8,4.8-11.3l3.8,7.6c-0.5,0.7-0.7,1.6-0.5,2.5c0.3,1.7,1.7,3,3.5,3
	c0.2,0,0.4,0,0.5,0c1.9-0.3,3.2-2.1,2.9-4c-0.3-1.7-1.7-2.9-3.4-3l-3.7-7.5C60.8,48.6,61.4,48.4,62.1,48.3z M31.3,63.3
	C31.2,63.2,31.2,63.2,31.3,63.3c-0.6-0.6-1.1-1-1.5-1.5c-0.4-0.9-0.8-1.8-1.3-2.6c0.5-0.8,1.4-2.4,1.8-3l3.7,5.4
	c-0.2,0.4-0.3,0.9-0.4,1.4L31.3,63.3z M18.7,65.2l4.4-6.5c0.5,0.4,0.9,0.8,1.3,1.3c-0.7,0.7-1.4,1.7-1.4,2.4c0.1,0.1,1.4,0.8,3,1.7
	L18.7,65.2z M40.1,44.9c-0.5,1.7-1.7,3.5-1.8,5.5c-0.1,2.4-0.3,6-0.8,8.3c-0.4,0.1-0.8,0.2-1.2,0.4l-4.1-6c1.7-2.6,3.7-5.2,5.2-7
	L40.1,44.9z M41.1,57.4c0.9-3.4,1.7-6.3,3-9.2c1-2.2,2.2-4.2,2-4.8c-0.1-0.4-0.2-0.7-0.4-1.1l5.3-2.5L41.1,57.4z M40,25
	c-0.5,1.5,0.7,2,4.6,4.7c4.7,1.8,2.5,0.9,6.1,2.3L48,32.3l2.3,4L44.6,39c-1.4-3.5-3.3-7.5-7.2-11.5C39.2,25.9,39.3,25.3,40,25z
	 M37.6,40.8c0.3,0.1,0.6,0.4,1.1,1l-0.9,0.4C37.6,41.4,37.6,41.1,37.6,40.8z M27.2,52.4c-0.4,1.3-0.9,2.6-1.2,3.8
	c-0.3-0.3-0.6-0.5-0.8-0.7L27.2,52.4z M15.4,79.1c-5.8,0-10.6-4.1-11.5-9.8C2.9,63,7.3,57.1,13.6,56c3.2-0.5,5.2,0.2,6.6,0.9
	L15.4,64c0,0,0,0-0.1,0c-0.2,0-0.4,0-0.5,0c-1.9,0.3-3.2,2.1-2.9,4c0.3,1.7,1.7,3,3.5,3c0.2,0,0.4,0,0.5,0c1.3-0.2,2.4-1.1,2.8-2.3
	l8.3-1.3c0,2.5-0.7,4.9-2.2,7C23,76.8,20.3,79.1,15.4,79.1z M38.2,73.3c-1.5,0.1-0.3,1.5-0.7,2.2c-3.7,0.4-8.5,1.3-8.5,0.7
	c-0.5,0.3-1,0.6-1.6,0.9c2.5-2.6,3.5-6.8,3.3-10.3h0.1c0.8,0.5,1.4,0.8,1.4,0.8s0.7-0.7,0.7-1.1l0,0l0.9-0.1
	c0.9,1.7,2.6,2.8,4.6,2.8c2.4,0,3.4-1,4.3-2.2c0.4-0.6,0.7-1.2,0.9-1.9c0.6-0.1,2.4-0.2,2.4-0.2c0.1-0.5-0.5-1.9-2.4-2.2
	c-0.1-0.6-0.4-1.2-0.7-1.7l10.3-18.4l2.2,4.5c-4.9,3.2-7.8,9.1-6.8,15.3c0.7,4.3,3.1,8,6.5,10.3c-1.1,0.6-2.4,1.2-3.8,1.6
	C47.1,73.8,42.9,73.5,38.2,73.3z"/>
</svg>
