<?xml version="1.0" encoding="utf-8"?>
<!-- Generator: Adobe Illustrator 23.0.6, SVG Export Plug-In . SVG Version: 6.00 Build 0)  -->
<svg version="1.1" id="Layer_1" xmlns="http://www.w3.org/2000/svg" xmlns:xlink="http://www.w3.org/1999/xlink" x="0px" y="0px"
	 viewBox="0 0 90 87.8" style="enable-background:new 0 0 90 87.8;" xml:space="preserve">
<style type="text/css">
	.st0{fill:#FFFFFF;}
</style>
<path class="st0" d="M89.8,61.4l-2.5-0.1l-5.3,2.1l-17.7,6.2l-0.5,0.2l-1.7-5.5l10.3-3.6l-0.2-0.8l-2-0.1l-8.8,2.7l-4.8-9.7
	l-0.8-1.8l-0.3-0.8l-0.2-0.9l-0.1-1v-1.2l0.1-1.5l0.2-1.9l0.2-2.4l0.1-1.3l0.3-1.9l-0.2-3.3l-0.5-3.2l-0.8-2.9l-2.1-5.9l3.4,1.6
	l2.5,7.3l0,1.2l-0.7,1.4L57.5,35l-0.5-0.4l-0.6,0.9l0.5,0.4l-0.5,1.5l3.6,2.2l0.9-0.5l23.5,18.5l-0.3,1.1v0.6l0.2,0.5l0.3,0.3
	l0.4,0.2h0.5l0.6-0.2l0.7-0.4l0.3-0.2l1.4,0.4l-0.8-1.2l0.2-0.5l0.2-0.7v-0.6l-0.2-0.5L87.6,56l-0.4-0.2h-0.5L86.1,56l-1,0.6
	L61.7,38.2l1.5-3.4l-0.5-6.4l-0.4-2L61.8,25l-0.7-1.5l-1-1.6l-1.4-1.7l-1.5-2l-2-2l-1.6-1.6l-1.4-1.2l-1-0.7l-1.3-0.7l-2.1-0.6
	l-1.6-0.2L44,11H42l-1.3,0l-0.5,0l-0.7-0.8l0.6-2l0.2-0.9L40,4.7l-0.4-1.5l-0.7-1.6l-0.8-0.9l-1.1-0.5l-1-0.1l-0.9,0.1l-0.7,0.3
	l-1,0.4l-0.6,0.3L31.8,2l-1,0.8l-0.9,1l-1,1.3l-1.3,2l0.9,0.5l0.8,1.6l0.5,0.6L30,11l2.8,3.7l2.1-0.6l0.1,0.2l-1.5,1.5l-0.8,1
	l-0.7,1.1l-0.5,1.1l-0.6,1.9l-1.9,8.9l-4.7,4.4l-3.5,2.6l-0.4,1.6l-0.8,0l-0.1,1.1l0.7,0l0.3,1.3l4.5,0.3l0.5-1.1l8.2,0.7l-2,2.6
	l-1,1.6l-0.8,1.6L29.1,48l-0.3,0.8l1,1.3l1.8,2.6l1.6,2.5l1.9,3.3l1.3,2.4l0.5,1l0.4,1.4l0,1.1l-0.2,0.9l-0.3,0.9L36.5,67l-0.6,1
	l-0.7,1l-0.4,0.6l0.4,1.4l0,0l-21.5,8.4l-3.3,1.2L9,80.8l-1,0.1l-0.8-0.1l-0.9-0.4L5,79.1L3.7,78l-1-0.8l-1.1-0.6L0.2,77L0,77.5
	l0,0.8l0.2,1l0.6,1.3L2.3,82l2,1l2.1,0.2l1.7-0.1l1.5-0.2l1.9-0.3l2.3-0.8L32.2,75l9.4-3.7l13.5-4.5l-0.3,1.6l-1,2.5l-0.7,1.2
	l-0.6,0.8l0.2,1.5l-14.2,6.5l-9,4.1l-2.3,0.4L26,85.1l-1-0.6l-1.3-1l-1.2-1l-1.3-0.8L20,81.5l-0.8,0.8l0.1,1.2l0.4,1.2l0.5,0.8
	l1.6,1.4l1,0.5l2.2,0.4l1.1,0l1.2-0.1l1.7-0.4l4.6-1.4l7-2.9l7.6-3.4l8.8-4l8.3-3.7l10.9-4.3L90,61.9L89.8,61.4z M85.5,56.9
	L85.5,56.9l0.8-0.4l0.5,0l0.4,0.1l0.2,0.3l0.1,0.4l-0.1,0.5l-0.2,0.4L85.5,56.9L85.5,56.9C85.5,56.9,85.5,56.9,85.5,56.9z
	 M84.8,58.2l0.1-0.3l0,0h0l0,0l1.6,1.3l-0.6,0.3l-0.5,0.1l-0.4-0.1l-0.2-0.3l-0.1-0.4L84.8,58.2z M34.6,39.6l-8.7-0.8l0.5-0.9
	l3.7-2.5l4-3.3l2.4-5.5l1.4,1.5l1.1,1.4l1.2,2l0.1,2.2l-0.7,0.6l-2.2,2.1L34.6,39.6z M46.3,66.8l-2.5-6.1l-2.1-4.3l-2.4-4.2l-2-2.9
	l0.8-1l0.8-0.8l1.1-1l1.5-1.2l2.1-1.5l2.6-1.6h0l1.5,8.7l0.8,1l0.8,1.2l0.9,1.6l1.2,2.3l1.5,3.1l1.9,4.5L46.3,66.8z"/>
</svg>
