<svg xmlns="http://www.w3.org/2000/svg" viewBox="0 0 95.1 80.1"><defs><style>.cls-1{fill:#fff;}</style></defs><title>web</title><g id="Layer_1" data-name="Layer 1"><path class="cls-1" d="M90.7,2.08H9.3a6.81,6.81,0,0,0-6.8,6.8v66.5a6.81,6.81,0,0,0,6.8,6.8H90.8a6.81,6.81,0,0,0,6.8-6.8V8.88A6.89,6.89,0,0,0,90.7,2.08Zm-59,5.7a3.1,3.1,0,1,1-3.1,3.1A3.12,3.12,0,0,1,31.7,7.78Zm-9.5,0a3.1,3.1,0,1,1-3.1,3.1A3.05,3.05,0,0,1,22.2,7.78Zm-9.6,0a3.1,3.1,0,1,1-3.1,3.1A3.12,3.12,0,0,1,12.6,7.78Zm79.1,67.5a1,1,0,0,1-1,1H9.3a1,1,0,0,1-1-1V20.58H91.8v54.7Z" transform="translate(-2.5 -2.08)"/><path class="cls-1" d="M52.7,57.08H78.6a3.76,3.76,0,0,0,3.7-3.7V32.28a3.76,3.76,0,0,0-3.7-3.7H52.7a3.76,3.76,0,0,0-3.7,3.7v21.1A3.76,3.76,0,0,0,52.7,57.08Zm20.2-22.5a2.3,2.3,0,1,1-2.3,2.3A2.2,2.2,0,0,1,72.9,34.58ZM55.5,49.68l6.8-10.8a.52.52,0,0,1,.9,0l4.2,5.6a.63.63,0,0,0,.9.1l1.8-1.7a.63.63,0,0,1,.9.1l4.8,6.7a.56.56,0,0,1-.5.9H56A.63.63,0,0,1,55.5,49.68Z" transform="translate(-2.5 -2.08)"/><path class="cls-1" d="M20.3,34.38H40.8a2.9,2.9,0,1,0,0-5.8H20.3a2.9,2.9,0,0,0,0,5.8Z" transform="translate(-2.5 -2.08)"/><path class="cls-1" d="M20.3,45.68H40.8a2.9,2.9,0,1,0,0-5.8H20.3a2.9,2.9,0,0,0,0,5.8Z" transform="translate(-2.5 -2.08)"/><path class="cls-1" d="M20.3,57.08H40.8a2.9,2.9,0,1,0,0-5.8H20.3a2.9,2.9,0,0,0,0,5.8Z" transform="translate(-2.5 -2.08)"/><path class="cls-1" d="M20.3,68.38H79.7a2.9,2.9,0,0,0,0-5.8H20.3a2.9,2.9,0,0,0,0,5.8Z" transform="translate(-2.5 -2.08)"/></g></svg>