<svg id="Layer_1" data-name="Layer 1" xmlns="http://www.w3.org/2000/svg" viewBox="0 0 32 28.97"><title>soup</title><path d="M31.5,14H.5a.47.47,0,0,0-.5.5,14.46,14.46,0,0,0,9.2,12.3,1.45,1.45,0,0,0-.2.7A1.54,1.54,0,0,0,10.5,29H22.2a1.55,1.55,0,0,0,1.6-1.4,1.16,1.16,0,0,0-.4-1,14.29,14.29,0,0,0,8.6-12C32,14.17,31.8,14,31.5,14Z" style="fill:#fff"/><path d="M9.4,12.67a1,1,0,0,0,1.4,0c2.3-2.2.9-4.3,0-5.7-1-1.6-1.3-2.2,0-3.2a1,1,0,0,0,.1-1.4,1.08,1.08,0,0,0-1.4-.2c-2.8,2.3-1.3,4.6-.4,6s1.3,2.1.3,3.1A1,1,0,0,0,9.4,12.67Z" style="fill:#fff"/><path d="M15.3,10.67a1,1,0,0,0,1.4,0c2.3-2.2.9-4.3,0-5.7-1-1.6-1.3-2.2,0-3.2a1,1,0,0,0,.1-1.4,1.08,1.08,0,0,0-1.4-.2c-2.8,2.3-1.3,4.6-.4,5.9,1,1.5,1.3,2.1.3,3.1A1.36,1.36,0,0,0,15.3,10.67Z" style="fill:#fff"/><path d="M21.3,12.67a1,1,0,0,0,1.4,0c2.3-2.2.9-4.3,0-5.7-1-1.6-1.3-2.2,0-3.2a1,1,0,0,0,.1-1.4,1.08,1.08,0,0,0-1.4-.2c-2.8,2.3-1.3,4.6-.4,5.9,1,1.5,1.3,2.1.3,3.1A1.2,1.2,0,0,0,21.3,12.67Z" style="fill:#fff"/></svg>