<?xml version="1.0" encoding="utf-8"?>
<!-- Generator: Adobe Illustrator 23.0.1, SVG Export Plug-In . SVG Version: 6.00 Build 0)  -->
<svg version="1.1"
	 id="Layer_1" xmlns:cc="http://creativecommons.org/ns#" xmlns:dc="http://purl.org/dc/elements/1.1/" xmlns:inkscape="http://www.inkscape.org/namespaces/inkscape" xmlns:rdf="http://www.w3.org/1999/02/22-rdf-syntax-ns#" xmlns:sodipodi="http://sodipodi.sourceforge.net/DTD/sodipodi-0.dtd" xmlns:svg="http://www.w3.org/2000/svg"
	 xmlns="http://www.w3.org/2000/svg" xmlns:xlink="http://www.w3.org/1999/xlink" x="0px" y="0px" viewBox="0 0 100 100.2"
	 style="enable-background:new 0 0 100 100.2;" xml:space="preserve">
<style type="text/css">
	.st0{fill:#FFFFFF;}
</style>
<path class="st0" d="M5,0v5H0v15h5v10H0v15h5v10H0v15h5v10H0v15h5v5h15v-5h10v5h15v-5h10v5h15v-5h10v5h15v-5h5V80h-5V70h5V55h-5V45
	h5V30h-5V20h5V5h-5V0H80v5H70V0H55v5H45V0H30v5H20V0H5z M20,20h10v10H20V20z M45,20h10v10H45V20z M70,20h10v10H70V20z M20,45h10v10
	H20V45z M45,45h10v10H45V45z M70,45h10v10H70V45z M20,70h10v10H20V70z M45,70h10v10H45V70z M70,70h10v10H70V70z"/>
</svg>
